<mxfile host="app.diagrams.net" agent="Mozilla/5.0 (Windows NT 10.0; Win64; x64) AppleWebKit/537.36 (KHTML, like Gecko) Chrome/137.0.0.0 Safari/537.36" version="27.1.4">
  <diagram name="Page-1" id="L1RatjPxenl9vrnPu1-D">
    <mxGraphModel dx="332" dy="866" grid="1" gridSize="10" guides="1" tooltips="1" connect="1" arrows="1" fold="1" page="1" pageScale="1" pageWidth="1169" pageHeight="827" math="0" shadow="0">
      <root>
        <mxCell id="0" />
        <mxCell id="1" parent="0" />
        <mxCell id="_g4azJEwnOYep_s2dSTF-1" value="Servidores WolfSys" style="rounded=1;whiteSpace=wrap;html=1;fillColor=none;strokeColor=#7EA6E0;strokeWidth=2;dashed=1;verticalAlign=bottom;fontSize=14;fontStyle=1;labelPosition=center;verticalLabelPosition=top;align=center;arcSize=8;" parent="1" vertex="1">
          <mxGeometry x="1253.34" y="240" width="760" height="576" as="geometry" />
        </mxCell>
        <mxCell id="_g4azJEwnOYep_s2dSTF-2" value="Edificio Local" style="rounded=1;whiteSpace=wrap;html=1;fillColor=none;strokeColor=#82B366;strokeWidth=2;dashed=1;verticalAlign=bottom;fontSize=14;fontStyle=1;labelPosition=center;verticalLabelPosition=top;align=center;" parent="1" vertex="1">
          <mxGeometry x="2067.34" y="380" width="267.66" height="440" as="geometry" />
        </mxCell>
        <mxCell id="_g4azJEwnOYep_s2dSTF-3" value="" style="group" parent="1" vertex="1" connectable="0">
          <mxGeometry x="2097.34" y="419" width="140" height="90" as="geometry" />
        </mxCell>
        <mxCell id="_g4azJEwnOYep_s2dSTF-4" value="Gateway Edificio&lt;br&gt;&lt;br&gt;&lt;div&gt;&lt;br&gt;&lt;/div&gt;&lt;div&gt;&lt;br&gt;&lt;/div&gt;&lt;div&gt;&lt;br&gt;&lt;/div&gt;" style="shape=cube;whiteSpace=wrap;html=1;boundedLbl=1;backgroundOutline=1;darkOpacity=0.05;darkOpacity2=0.1;fillColor=#d5e8d4;strokeColor=#82b366;fontSize=11;fontStyle=0;" parent="_g4azJEwnOYep_s2dSTF-3" vertex="1">
          <mxGeometry width="140" height="90" as="geometry" />
        </mxCell>
        <mxCell id="_g4azJEwnOYep_s2dSTF-5" value="CPU 4 núcleos, 8GB RAM, 64GB SSD" style="rounded=0;whiteSpace=wrap;html=1;" parent="_g4azJEwnOYep_s2dSTF-3" vertex="1">
          <mxGeometry x="25" y="41" width="110" height="45" as="geometry" />
        </mxCell>
        <mxCell id="_g4azJEwnOYep_s2dSTF-7" value="" style="group" parent="1" vertex="1" connectable="0">
          <mxGeometry x="2074" y="41" width="230" height="245" as="geometry" />
        </mxCell>
        <mxCell id="_g4azJEwnOYep_s2dSTF-8" value="Leyenda de Componentes" style="rounded=1;whiteSpace=wrap;html=1;fillColor=#ECF0F1;strokeColor=#BDC3C7;verticalAlign=top;fontSize=14;fontStyle=1;" parent="_g4azJEwnOYep_s2dSTF-7" vertex="1">
          <mxGeometry width="230" height="245" as="geometry" />
        </mxCell>
        <mxCell id="_g4azJEwnOYep_s2dSTF-9" value="Servidores Wolfsys" style="shape=cube;whiteSpace=wrap;html=1;boundedLbl=1;backgroundOutline=1;darkOpacity=0.05;darkOpacity2=0.1;fillColor=#f8cecc;strokeColor=#b85450;fontSize=10;verticalAlign=middle;labelBackgroundColor=none;horizontal=1;labelPosition=right;verticalLabelPosition=middle;align=left;spacing=15;" parent="_g4azJEwnOYep_s2dSTF-7" vertex="1">
          <mxGeometry x="20" y="39" width="90" height="25" as="geometry" />
        </mxCell>
        <mxCell id="_g4azJEwnOYep_s2dSTF-10" value="Bases de Datos" style="shape=cube;whiteSpace=wrap;html=1;boundedLbl=1;backgroundOutline=1;darkOpacity=0.05;darkOpacity2=0.1;fillColor=#ffe6cc;strokeColor=#d79b00;fontSize=10;align=left;labelPosition=right;verticalLabelPosition=middle;verticalAlign=middle;spacing=15;" parent="_g4azJEwnOYep_s2dSTF-7" vertex="1">
          <mxGeometry x="20" y="74" width="90" height="25" as="geometry" />
        </mxCell>
        <mxCell id="_g4azJEwnOYep_s2dSTF-11" value="Edge Computing" style="shape=cube;whiteSpace=wrap;html=1;boundedLbl=1;backgroundOutline=1;darkOpacity=0.05;darkOpacity2=0.1;fillColor=#d5e8d4;strokeColor=#82b366;fontSize=10;labelPosition=right;verticalLabelPosition=middle;align=left;verticalAlign=middle;spacing=15;" parent="_g4azJEwnOYep_s2dSTF-7" vertex="1">
          <mxGeometry x="21.340000000000003" y="108" width="90" height="25" as="geometry" />
        </mxCell>
        <mxCell id="_g4azJEwnOYep_s2dSTF-12" value="Dispositivos Cliente" style="shape=cube;whiteSpace=wrap;html=1;boundedLbl=1;backgroundOutline=1;darkOpacity=0.05;darkOpacity2=0.1;fillColor=#e1d5e7;strokeColor=#9673a6;fontSize=10;labelPosition=right;verticalLabelPosition=middle;align=left;verticalAlign=middle;spacing=15;" parent="_g4azJEwnOYep_s2dSTF-7" vertex="1">
          <mxGeometry x="21.340000000000003" y="143" width="90" height="25" as="geometry" />
        </mxCell>
        <mxCell id="_g4azJEwnOYep_s2dSTF-13" value="Tumimeras" style="shape=cube;whiteSpace=wrap;html=1;boundedLbl=1;backgroundOutline=1;darkOpacity=0.05;darkOpacity2=0.1;fillColor=#dae8fc;strokeColor=#6c8ebf;fontSize=10;labelPosition=right;verticalLabelPosition=middle;align=left;verticalAlign=middle;spacing=15;" parent="_g4azJEwnOYep_s2dSTF-7" vertex="1">
          <mxGeometry x="21.340000000000003" y="178" width="90" height="25" as="geometry" />
        </mxCell>
        <mxCell id="_g4azJEwnOYep_s2dSTF-14" value="Servicios Internos" style="shape=cube;whiteSpace=wrap;html=1;boundedLbl=1;backgroundOutline=1;darkOpacity=0.05;darkOpacity2=0.1;fillColor=#fff2cc;strokeColor=#d6b656;fontSize=10;labelPosition=right;verticalLabelPosition=middle;align=left;verticalAlign=middle;spacing=15;" parent="_g4azJEwnOYep_s2dSTF-7" vertex="1">
          <mxGeometry x="21.340000000000003" y="215.5" width="90" height="25" as="geometry" />
        </mxCell>
        <mxCell id="_g4azJEwnOYep_s2dSTF-15" value="" style="group" parent="1" vertex="1" connectable="0">
          <mxGeometry x="2097.34" y="701" width="140" height="100" as="geometry" />
        </mxCell>
        <mxCell id="_g4azJEwnOYep_s2dSTF-16" value="DB Local" style="shape=cube;whiteSpace=wrap;html=1;boundedLbl=1;backgroundOutline=1;darkOpacity=0.05;darkOpacity2=0.1;fillColor=#ffe6cc;strokeColor=#d79b00;fontSize=11;fontStyle=0;" parent="_g4azJEwnOYep_s2dSTF-15" vertex="1">
          <mxGeometry width="140" height="100" as="geometry" />
        </mxCell>
        <mxCell id="_g4azJEwnOYep_s2dSTF-18" value="" style="group" parent="1" vertex="1" connectable="0">
          <mxGeometry x="2097.34" y="559" width="140" height="90" as="geometry" />
        </mxCell>
        <mxCell id="_g4azJEwnOYep_s2dSTF-19" value="Edge Controller&lt;br&gt;&lt;br&gt;&lt;div&gt;&lt;br&gt;&lt;/div&gt;&lt;div&gt;&lt;br&gt;&lt;/div&gt;&lt;div&gt;&lt;br&gt;&lt;/div&gt;" style="shape=cube;whiteSpace=wrap;html=1;boundedLbl=1;backgroundOutline=1;darkOpacity=0.05;darkOpacity2=0.1;fillColor=#d5e8d4;strokeColor=#82b366;fontSize=11;fontStyle=0;" parent="_g4azJEwnOYep_s2dSTF-18" vertex="1">
          <mxGeometry width="140" height="90" as="geometry" />
        </mxCell>
        <mxCell id="_g4azJEwnOYep_s2dSTF-20" value="CPU 2 núcleos, 2GB RAM, 16GB SSD" style="rounded=0;whiteSpace=wrap;html=1;" parent="_g4azJEwnOYep_s2dSTF-18" vertex="1">
          <mxGeometry x="25" y="41" width="110" height="45" as="geometry" />
        </mxCell>
        <mxCell id="_g4azJEwnOYep_s2dSTF-21" value="" style="endArrow=none;html=1;rounded=0;exitX=0;exitY=0;exitDx=153;exitDy=55;exitPerimeter=0;" parent="1" source="_g4azJEwnOYep_s2dSTF-33" edge="1">
          <mxGeometry width="50" height="50" relative="1" as="geometry">
            <mxPoint x="2033.3400000000001" y="430" as="sourcePoint" />
            <mxPoint x="2103.34" y="471" as="targetPoint" />
          </mxGeometry>
        </mxCell>
        <mxCell id="_g4azJEwnOYep_s2dSTF-24" value="" style="group" parent="1" vertex="1" connectable="0">
          <mxGeometry x="1625.8400000000001" y="696" width="169" height="110.5" as="geometry" />
        </mxCell>
        <mxCell id="_g4azJEwnOYep_s2dSTF-25" value="" style="group" parent="_g4azJEwnOYep_s2dSTF-24" vertex="1" connectable="0">
          <mxGeometry width="169" height="110.5" as="geometry" />
        </mxCell>
        <mxCell id="_g4azJEwnOYep_s2dSTF-26" value="DB Principal&lt;br&gt;&lt;br&gt;&lt;div&gt;&lt;br&gt;&lt;/div&gt;&lt;div&gt;&lt;br&gt;&lt;/div&gt;&lt;div&gt;&lt;br&gt;&lt;/div&gt;&lt;div&gt;&lt;br&gt;&lt;/div&gt;" style="shape=cube;whiteSpace=wrap;html=1;boundedLbl=1;backgroundOutline=1;darkOpacity=0.05;darkOpacity2=0.1;fillColor=#ffe6cc;strokeColor=#d79b00;fontSize=11;fontStyle=0;" parent="_g4azJEwnOYep_s2dSTF-25" vertex="1">
          <mxGeometry width="169" height="110.5" as="geometry" />
        </mxCell>
        <mxCell id="_g4azJEwnOYep_s2dSTF-27" value="&lt;span&gt;8 núcleos, 2GB RAM, 1TB SSD.&lt;/span&gt;" style="rounded=0;whiteSpace=wrap;html=1;fontSize=12;" parent="_g4azJEwnOYep_s2dSTF-25" vertex="1">
          <mxGeometry x="45.5" y="50.33888888888889" width="103.99999999999999" height="55.25" as="geometry" />
        </mxCell>
        <mxCell id="_g4azJEwnOYep_s2dSTF-28" value="" style="endArrow=none;html=1;rounded=0;exitX=0.399;exitY=0.09;exitDx=0;exitDy=0;exitPerimeter=0;entryX=0.336;entryY=1.002;entryDx=0;entryDy=0;entryPerimeter=0;" parent="1" source="_g4azJEwnOYep_s2dSTF-26" target="_g4azJEwnOYep_s2dSTF-45" edge="1">
          <mxGeometry width="50" height="50" relative="1" as="geometry">
            <mxPoint x="1663.3400000000001" y="676" as="sourcePoint" />
            <mxPoint x="1695.3400000000001" y="508" as="targetPoint" />
          </mxGeometry>
        </mxCell>
        <mxCell id="_g4azJEwnOYep_s2dSTF-29" value="" style="group" parent="1" vertex="1" connectable="0">
          <mxGeometry x="1723.3400000000001" y="528.5" width="158" height="100" as="geometry" />
        </mxCell>
        <mxCell id="_g4azJEwnOYep_s2dSTF-30" value="Servidor Procesamiento 2&lt;br&gt;&lt;br&gt;&lt;div&gt;&lt;br&gt;&lt;/div&gt;&lt;div&gt;&lt;br&gt;&lt;/div&gt;&lt;div&gt;&lt;br&gt;&lt;/div&gt;" style="shape=cube;whiteSpace=wrap;html=1;boundedLbl=1;backgroundOutline=1;darkOpacity=0.05;darkOpacity2=0.1;fillColor=#f8cecc;strokeColor=#b85450;fontSize=11;fontStyle=0;" parent="_g4azJEwnOYep_s2dSTF-29" vertex="1">
          <mxGeometry width="157.99999999999997" height="100" as="geometry" />
        </mxCell>
        <mxCell id="_g4azJEwnOYep_s2dSTF-31" value="&lt;span style=&quot;font-size: 10px;&quot;&gt;16 núcleos, 64GB RAM, 2TB SSD.&lt;/span&gt;" style="rounded=0;whiteSpace=wrap;html=1;verticalAlign=top;" parent="_g4azJEwnOYep_s2dSTF-29" vertex="1">
          <mxGeometry x="31.599999999999998" y="49" width="115.86666666666666" height="45" as="geometry" />
        </mxCell>
        <mxCell id="_g4azJEwnOYep_s2dSTF-32" value="" style="group" parent="1" vertex="1" connectable="0">
          <mxGeometry x="1847.3400000000001" y="416" width="153" height="90" as="geometry" />
        </mxCell>
        <mxCell id="_g4azJEwnOYep_s2dSTF-33" value="Servidor Control&lt;br&gt;&lt;div&gt;&lt;br&gt;&lt;/div&gt;&lt;div&gt;&lt;br&gt;&lt;/div&gt;&lt;div&gt;&lt;br&gt;&lt;/div&gt;" style="shape=cube;whiteSpace=wrap;html=1;boundedLbl=1;backgroundOutline=1;darkOpacity=0.05;darkOpacity2=0.1;fillColor=#f8cecc;strokeColor=#b85450;fontSize=12;fontStyle=0;" parent="_g4azJEwnOYep_s2dSTF-32" vertex="1">
          <mxGeometry width="153" height="90" as="geometry" />
        </mxCell>
        <mxCell id="_g4azJEwnOYep_s2dSTF-34" value="8 núcleos, 32GB RAM, 512GB SSD." style="rounded=0;whiteSpace=wrap;html=1;fontSize=11;" parent="_g4azJEwnOYep_s2dSTF-32" vertex="1">
          <mxGeometry x="30.6" y="40" width="112.2" height="44.6" as="geometry" />
        </mxCell>
        <mxCell id="_g4azJEwnOYep_s2dSTF-35" value="" style="group" parent="1" vertex="1" connectable="0">
          <mxGeometry x="1283.3400000000001" y="702" width="150" height="97" as="geometry" />
        </mxCell>
        <mxCell id="_g4azJEwnOYep_s2dSTF-36" value="Tumimeras&lt;br&gt;&lt;br&gt;&lt;div&gt;&lt;br&gt;&lt;/div&gt;&lt;div&gt;&lt;br&gt;&lt;/div&gt;&lt;div&gt;&lt;br&gt;&lt;/div&gt;&lt;div&gt;&lt;br&gt;&lt;/div&gt;" style="shape=cube;whiteSpace=wrap;html=1;boundedLbl=1;backgroundOutline=1;darkOpacity=0.05;darkOpacity2=0.1;fillColor=#dae8fc;strokeColor=#6c8ebf;fontSize=9;fontStyle=0;" parent="_g4azJEwnOYep_s2dSTF-35" vertex="1">
          <mxGeometry width="150" height="97" as="geometry" />
        </mxCell>
        <mxCell id="_g4azJEwnOYep_s2dSTF-37" value="&lt;span style=&quot;font-size: 10px;&quot;&gt;4 núcleos, 8GB RAM, 2TB SSD.&lt;/span&gt;" style="rounded=0;whiteSpace=wrap;html=1;fontSize=9;" parent="_g4azJEwnOYep_s2dSTF-35" vertex="1">
          <mxGeometry x="42.857142857142854" y="47" width="85.71428571428571" height="45" as="geometry" />
        </mxCell>
        <mxCell id="_g4azJEwnOYep_s2dSTF-38" value="" style="group" parent="1" vertex="1" connectable="0">
          <mxGeometry x="1323.3400000000001" y="566" width="150" height="113" as="geometry" />
        </mxCell>
        <mxCell id="_g4azJEwnOYep_s2dSTF-39" value="Main: DB de Videos&lt;br&gt;&lt;br&gt;&lt;br&gt;&lt;div&gt;&lt;br&gt;&lt;/div&gt;&lt;div&gt;&lt;br&gt;&lt;/div&gt;&lt;div&gt;&lt;br&gt;&lt;/div&gt;&lt;div&gt;&lt;br&gt;&lt;/div&gt;" style="shape=cube;whiteSpace=wrap;html=1;boundedLbl=1;backgroundOutline=1;darkOpacity=0.05;darkOpacity2=0.1;fillColor=#ffe6cc;strokeColor=#d79b00;fontSize=9;fontStyle=0;" parent="_g4azJEwnOYep_s2dSTF-38" vertex="1">
          <mxGeometry width="150" height="112.99999999999999" as="geometry" />
        </mxCell>
        <mxCell id="_g4azJEwnOYep_s2dSTF-40" value="8 núcleos, 64GB RAM, 240TB HDD RAID." style="rounded=0;whiteSpace=wrap;html=1;fontSize=12;" parent="_g4azJEwnOYep_s2dSTF-38" vertex="1">
          <mxGeometry x="30" y="50.22" width="108.46" height="56.5" as="geometry" />
        </mxCell>
        <mxCell id="_g4azJEwnOYep_s2dSTF-41" value="" style="group;align=center;verticalAlign=middle;" parent="1" vertex="1" connectable="0">
          <mxGeometry x="1326.3400000000001" y="407" width="164" height="100" as="geometry" />
        </mxCell>
        <mxCell id="_g4azJEwnOYep_s2dSTF-42" value="Servidor Procesamiento 1&lt;div&gt;&lt;br&gt;&lt;/div&gt;&lt;div&gt;&lt;br&gt;&lt;/div&gt;&lt;div&gt;&lt;br&gt;&lt;/div&gt;&lt;div&gt;&lt;br&gt;&lt;/div&gt;" style="shape=cube;whiteSpace=wrap;html=1;boundedLbl=1;backgroundOutline=1;darkOpacity=0.05;darkOpacity2=0.1;fillColor=#f8cecc;strokeColor=#b85450;fontSize=11;fontStyle=0;" parent="_g4azJEwnOYep_s2dSTF-41" vertex="1">
          <mxGeometry width="163.99999999999997" height="100" as="geometry" />
        </mxCell>
        <mxCell id="_g4azJEwnOYep_s2dSTF-43" value="&lt;font style=&quot;font-size: 12px;&quot;&gt;16 núcleos, 64GB RAM, 2TB SSD.&lt;/font&gt;" style="rounded=0;whiteSpace=wrap;html=1;verticalAlign=middle;fontSize=10;spacing=0;align=center;" parent="_g4azJEwnOYep_s2dSTF-41" vertex="1">
          <mxGeometry x="32.8" y="49" width="120.26666666666665" height="45" as="geometry" />
        </mxCell>
        <mxCell id="_g4azJEwnOYep_s2dSTF-44" value="" style="group" parent="1" vertex="1" connectable="0">
          <mxGeometry x="1633.3400000000001" y="406" width="183" height="100" as="geometry" />
        </mxCell>
        <mxCell id="_g4azJEwnOYep_s2dSTF-45" value="Edge Gateway&lt;div&gt;&lt;br&gt;&lt;/div&gt;&lt;div&gt;&lt;br&gt;&lt;/div&gt;&lt;div&gt;&lt;br&gt;&lt;/div&gt;&lt;div&gt;&lt;br&gt;&lt;/div&gt;&lt;div&gt;&lt;br&gt;&lt;/div&gt;" style="shape=cube;whiteSpace=wrap;html=1;boundedLbl=1;backgroundOutline=1;darkOpacity=0.05;darkOpacity2=0.1;fillColor=#f8cecc;strokeColor=#b85450;fontSize=11;fontStyle=0;" parent="_g4azJEwnOYep_s2dSTF-44" vertex="1">
          <mxGeometry y="-10" width="183" height="110" as="geometry" />
        </mxCell>
        <mxCell id="_g4azJEwnOYep_s2dSTF-46" value="&lt;font style=&quot;font-size: 12px;&quot;&gt;Servidor físico,&amp;nbsp;&lt;span style=&quot;background-color: transparent; color: light-dark(rgb(0, 0, 0), rgb(255, 255, 255));&quot;&gt;Linux, CPU 8 núcleos, 32GB RAM, 1TB SSD.&lt;/span&gt;&lt;/font&gt;" style="rounded=0;whiteSpace=wrap;html=1;fontSize=10;" parent="_g4azJEwnOYep_s2dSTF-44" vertex="1">
          <mxGeometry x="36.6" y="30" width="134.2" height="64" as="geometry" />
        </mxCell>
        <mxCell id="_g4azJEwnOYep_s2dSTF-47" value="" style="group" parent="1" vertex="1" connectable="0">
          <mxGeometry x="1499.3400000000001" y="438" width="140" height="90" as="geometry" />
        </mxCell>
        <mxCell id="_g4azJEwnOYep_s2dSTF-48" value="Módulo removible&lt;div&gt;&lt;br&gt;&lt;/div&gt;&lt;div&gt;&lt;br&gt;&lt;/div&gt;&lt;div&gt;&lt;br&gt;&lt;/div&gt;" style="shape=cube;whiteSpace=wrap;html=1;boundedLbl=1;backgroundOutline=1;darkOpacity=0.05;darkOpacity2=0.1;fillColor=#f8cecc;strokeColor=#b85450;fontSize=11;fontStyle=0;" parent="_g4azJEwnOYep_s2dSTF-47" vertex="1">
          <mxGeometry width="130" height="90" as="geometry" />
        </mxCell>
        <mxCell id="_g4azJEwnOYep_s2dSTF-49" value="4 núcleos, 16GB RAM, 512GB SSD." style="rounded=0;whiteSpace=wrap;html=1;verticalAlign=middle;fontSize=10;" parent="_g4azJEwnOYep_s2dSTF-47" vertex="1">
          <mxGeometry x="28.6" y="44" width="91.4" height="36" as="geometry" />
        </mxCell>
        <mxCell id="_g4azJEwnOYep_s2dSTF-50" value="" style="endArrow=none;html=1;rounded=0;exitX=0;exitY=0;exitDx=163.99999999999997;exitDy=60;exitPerimeter=0;" parent="1" edge="1">
          <mxGeometry width="50" height="50" relative="1" as="geometry">
            <mxPoint x="1490.3400000000001" y="432" as="sourcePoint" />
            <mxPoint x="1639.3400000000001" y="431" as="targetPoint" />
          </mxGeometry>
        </mxCell>
        <mxCell id="_g4azJEwnOYep_s2dSTF-51" value="" style="endArrow=none;html=1;rounded=0;entryX=0.335;entryY=1;entryDx=0;entryDy=0;entryPerimeter=0;" parent="1" target="_g4azJEwnOYep_s2dSTF-42" edge="1">
          <mxGeometry width="50" height="50" relative="1" as="geometry">
            <mxPoint x="1381.3400000000001" y="571" as="sourcePoint" />
            <mxPoint x="1381.116" y="539.3000000000001" as="targetPoint" />
          </mxGeometry>
        </mxCell>
        <mxCell id="_g4azJEwnOYep_s2dSTF-52" value="" style="endArrow=none;html=1;rounded=0;exitX=1;exitY=0.767;exitDx=0;exitDy=0;exitPerimeter=0;" parent="1" source="_g4azJEwnOYep_s2dSTF-45" edge="1">
          <mxGeometry width="50" height="50" relative="1" as="geometry">
            <mxPoint x="1823.3400000000001" y="536" as="sourcePoint" />
            <mxPoint x="1856" y="480" as="targetPoint" />
          </mxGeometry>
        </mxCell>
        <mxCell id="_g4azJEwnOYep_s2dSTF-53" value="" style="endArrow=none;html=1;rounded=0;entryX=0.96;entryY=1.001;entryDx=0;entryDy=0;entryPerimeter=0;jumpStyle=arc;jumpSize=15;exitX=0.017;exitY=0.205;exitDx=0;exitDy=0;exitPerimeter=0;" parent="1" target="_g4azJEwnOYep_s2dSTF-42" edge="1" source="_g4azJEwnOYep_s2dSTF-30">
          <mxGeometry width="50" height="50" relative="1" as="geometry">
            <mxPoint x="1726.3400000000001" y="544" as="sourcePoint" />
            <mxPoint x="1500.7120000000004" y="509.5" as="targetPoint" />
            <Array as="points">
              <mxPoint x="1484" y="549" />
            </Array>
          </mxGeometry>
        </mxCell>
        <mxCell id="_g4azJEwnOYep_s2dSTF-54" value="" style="endArrow=none;html=1;rounded=0;entryX=0.597;entryY=1.006;entryDx=0;entryDy=0;entryPerimeter=0;exitX=0.12;exitY=0.005;exitDx=0;exitDy=0;exitPerimeter=0;" parent="1" target="_g4azJEwnOYep_s2dSTF-45" edge="1" source="_g4azJEwnOYep_s2dSTF-30">
          <mxGeometry width="50" height="50" relative="1" as="geometry">
            <mxPoint x="1742.3400000000001" y="526" as="sourcePoint" />
            <mxPoint x="1783.3400000000001" y="566" as="targetPoint" />
          </mxGeometry>
        </mxCell>
        <mxCell id="_g4azJEwnOYep_s2dSTF-55" value="" style="endArrow=none;html=1;rounded=0;exitX=0.943;exitY=1.002;exitDx=0;exitDy=0;exitPerimeter=0;entryX=0.019;entryY=0.111;entryDx=0;entryDy=0;entryPerimeter=0;jumpStyle=arc;jumpSize=15;" parent="1" source="_g4azJEwnOYep_s2dSTF-48" target="_g4azJEwnOYep_s2dSTF-30" edge="1">
          <mxGeometry width="50" height="50" relative="1" as="geometry">
            <mxPoint x="1663.3400000000001" y="596" as="sourcePoint" />
            <mxPoint x="1713.3400000000001" y="546" as="targetPoint" />
            <Array as="points">
              <mxPoint x="1622" y="540" />
            </Array>
          </mxGeometry>
        </mxCell>
        <mxCell id="_g4azJEwnOYep_s2dSTF-56" value="" style="endArrow=none;html=1;rounded=0;exitX=0.231;exitY=1.001;exitDx=0;exitDy=0;exitPerimeter=0;" parent="1" source="_g4azJEwnOYep_s2dSTF-30" edge="1">
          <mxGeometry width="50" height="50" relative="1" as="geometry">
            <mxPoint x="1813.3400000000001" y="746" as="sourcePoint" />
            <mxPoint x="1759.3400000000001" y="704" as="targetPoint" />
          </mxGeometry>
        </mxCell>
        <mxCell id="_g4azJEwnOYep_s2dSTF-57" value="" style="endArrow=none;html=1;rounded=0;exitX=0;exitY=0;exitDx=157.99999999999997;exitDy=60;exitPerimeter=0;" parent="1" source="_g4azJEwnOYep_s2dSTF-30" edge="1">
          <mxGeometry width="50" height="50" relative="1" as="geometry">
            <mxPoint x="1943.3400000000001" y="640" as="sourcePoint" />
            <mxPoint x="2103.34" y="485" as="targetPoint" />
            <Array as="points">
              <mxPoint x="2033" y="588" />
              <mxPoint x="2033.3400000000001" y="485" />
            </Array>
          </mxGeometry>
        </mxCell>
        <mxCell id="_g4azJEwnOYep_s2dSTF-60" value="" style="group" parent="1" vertex="1" connectable="0">
          <mxGeometry x="1457.3400000000001" y="702" width="155" height="98.5" as="geometry" />
        </mxCell>
        <mxCell id="_g4azJEwnOYep_s2dSTF-61" value="&amp;nbsp;La Heladera&lt;br&gt;&lt;br&gt;&lt;div&gt;&lt;br&gt;&lt;/div&gt;&lt;div&gt;&lt;br&gt;&lt;/div&gt;&lt;div&gt;&lt;br&gt;&lt;/div&gt;&lt;div&gt;&lt;br&gt;&lt;/div&gt;" style="shape=cube;whiteSpace=wrap;html=1;boundedLbl=1;backgroundOutline=1;darkOpacity=0.05;darkOpacity2=0.1;fillColor=#fff2cc;strokeColor=#d6b656;fontSize=9;fontStyle=0;" parent="_g4azJEwnOYep_s2dSTF-60" vertex="1">
          <mxGeometry width="155" height="98.49999999999999" as="geometry" />
        </mxCell>
        <mxCell id="_g4azJEwnOYep_s2dSTF-62" value="&lt;span style=&quot;font-size: 10px;&quot;&gt;8 núcleos, 16GB RAM, 1TB SSD.&lt;/span&gt;" style="rounded=0;whiteSpace=wrap;html=1;fontSize=9;" parent="_g4azJEwnOYep_s2dSTF-60" vertex="1">
          <mxGeometry x="47.60714285714289" y="46.65789473684208" width="88.57142857142857" height="46.6578947368421" as="geometry" />
        </mxCell>
        <mxCell id="_g4azJEwnOYep_s2dSTF-63" value="" style="endArrow=none;html=1;rounded=0;exitX=0;exitY=0;exitDx=150;exitDy=58.5;exitPerimeter=0;" parent="1" source="_g4azJEwnOYep_s2dSTF-36" edge="1">
          <mxGeometry width="50" height="50" relative="1" as="geometry">
            <mxPoint x="1484.3400000000001" y="862" as="sourcePoint" />
            <mxPoint x="1464" y="760" as="targetPoint" />
          </mxGeometry>
        </mxCell>
        <mxCell id="_g4azJEwnOYep_s2dSTF-64" value="" style="endArrow=none;html=1;rounded=0;entryX=0.949;entryY=1.003;entryDx=0;entryDy=0;entryPerimeter=0;" parent="1" target="_g4azJEwnOYep_s2dSTF-39" edge="1">
          <mxGeometry width="50" height="50" relative="1" as="geometry">
            <mxPoint x="1465.3400000000001" y="706" as="sourcePoint" />
            <mxPoint x="1453.3400000000001" y="649" as="targetPoint" />
          </mxGeometry>
        </mxCell>
        <mxCell id="_g4azJEwnOYep_s2dSTF-65" value="" style="endArrow=none;html=1;rounded=0;" parent="1" edge="1">
          <mxGeometry width="50" height="50" relative="1" as="geometry">
            <mxPoint x="1313.3400000000001" y="712" as="sourcePoint" />
            <mxPoint x="1333.3400000000001" y="461" as="targetPoint" />
            <Array as="points">
              <mxPoint x="1313.3400000000001" y="461" />
            </Array>
          </mxGeometry>
        </mxCell>
        <mxCell id="_g4azJEwnOYep_s2dSTF-66" value="" style="endArrow=none;html=1;rounded=0;" parent="1" edge="1">
          <mxGeometry width="50" height="50" relative="1" as="geometry">
            <mxPoint x="1303.3400000000001" y="712" as="sourcePoint" />
            <mxPoint x="1663.3400000000001" y="404" as="targetPoint" />
            <Array as="points">
              <mxPoint x="1303.3400000000001" y="390" />
              <mxPoint x="1663.3400000000001" y="390" />
            </Array>
          </mxGeometry>
        </mxCell>
        <mxCell id="_g4azJEwnOYep_s2dSTF-67" value="" style="endArrow=none;html=1;rounded=0;entryX=0.254;entryY=1;entryDx=0;entryDy=0;entryPerimeter=0;" parent="1" target="-aFQt0R_n237FegXMDXR-12" edge="1">
          <mxGeometry width="50" height="50" relative="1" as="geometry">
            <mxPoint x="1750.3400000000001" y="405" as="sourcePoint" />
            <mxPoint x="1748.5310000000002" y="291.65" as="targetPoint" />
          </mxGeometry>
        </mxCell>
        <mxCell id="_g4azJEwnOYep_s2dSTF-73" value="Modelo operacional" style="rounded=0;whiteSpace=wrap;html=1;fillColor=#d5e8d4;strokeColor=#82b366;" parent="1" vertex="1">
          <mxGeometry x="1193" y="11" width="101" height="50" as="geometry" />
        </mxCell>
        <mxCell id="_g4azJEwnOYep_s2dSTF-74" value="" style="group" parent="1" vertex="1" connectable="0">
          <mxGeometry x="1493.3400000000001" y="567" width="150" height="113" as="geometry" />
        </mxCell>
        <mxCell id="_g4azJEwnOYep_s2dSTF-75" value="Réplica:&amp;nbsp; DB de Videos&lt;br&gt;&lt;br&gt;&lt;br&gt;&lt;div&gt;&lt;br&gt;&lt;/div&gt;&lt;div&gt;&lt;br&gt;&lt;/div&gt;&lt;div&gt;&lt;br&gt;&lt;/div&gt;&lt;div&gt;&lt;br&gt;&lt;/div&gt;" style="shape=cube;whiteSpace=wrap;html=1;boundedLbl=1;backgroundOutline=1;darkOpacity=0.05;darkOpacity2=0.1;fillColor=#ffe6cc;strokeColor=#d79b00;fontSize=9;fontStyle=0;" parent="_g4azJEwnOYep_s2dSTF-74" vertex="1">
          <mxGeometry width="150" height="112.99999999999999" as="geometry" />
        </mxCell>
        <mxCell id="_g4azJEwnOYep_s2dSTF-76" value="8 núcleos, 64GB RAM, 240TB HDD RAID." style="rounded=0;whiteSpace=wrap;html=1;fontSize=12;" parent="_g4azJEwnOYep_s2dSTF-74" vertex="1">
          <mxGeometry x="30" y="50.22" width="108.46" height="56.5" as="geometry" />
        </mxCell>
        <mxCell id="_g4azJEwnOYep_s2dSTF-77" value="" style="endArrow=none;html=1;rounded=0;entryX=0.411;entryY=1.005;entryDx=0;entryDy=0;entryPerimeter=0;" parent="1" target="_g4azJEwnOYep_s2dSTF-42" edge="1">
          <mxGeometry width="50" height="50" relative="1" as="geometry">
            <mxPoint x="1513.3400000000001" y="571" as="sourcePoint" />
            <mxPoint x="1463.3400000000001" y="520" as="targetPoint" />
            <Array as="points">
              <mxPoint x="1513.3400000000001" y="560" />
              <mxPoint x="1393.3400000000001" y="560" />
            </Array>
          </mxGeometry>
        </mxCell>
        <mxCell id="_g4azJEwnOYep_s2dSTF-78" value="" style="endArrow=none;html=1;rounded=0;entryX=0.245;entryY=1.006;entryDx=0;entryDy=0;entryPerimeter=0;exitX=0.466;exitY=0.035;exitDx=0;exitDy=0;exitPerimeter=0;" parent="1" source="_g4azJEwnOYep_s2dSTF-61" target="_g4azJEwnOYep_s2dSTF-75" edge="1">
          <mxGeometry width="50" height="50" relative="1" as="geometry">
            <mxPoint x="1400.3400000000001" y="708" as="sourcePoint" />
            <mxPoint x="1563.3400000000001" y="710" as="targetPoint" />
          </mxGeometry>
        </mxCell>
        <mxCell id="_g4azJEwnOYep_s2dSTF-79" value="" style="endArrow=none;html=1;rounded=0;entryX=0;entryY=0;entryDx=80;entryDy=90;entryPerimeter=0;" parent="1" target="_g4azJEwnOYep_s2dSTF-4" edge="1">
          <mxGeometry width="50" height="50" relative="1" as="geometry">
            <mxPoint x="2177" y="567" as="sourcePoint" />
            <mxPoint x="2317.34" y="500" as="targetPoint" />
          </mxGeometry>
        </mxCell>
        <mxCell id="_g4azJEwnOYep_s2dSTF-80" value="" style="endArrow=none;html=1;rounded=0;entryX=0;entryY=0;entryDx=80;entryDy=90;entryPerimeter=0;" parent="1" target="_g4azJEwnOYep_s2dSTF-19" edge="1">
          <mxGeometry width="50" height="50" relative="1" as="geometry">
            <mxPoint x="2178" y="707" as="sourcePoint" />
            <mxPoint x="2197.34" y="620" as="targetPoint" />
          </mxGeometry>
        </mxCell>
        <mxCell id="_g4azJEwnOYep_s2dSTF-82" value="" style="endArrow=none;html=1;rounded=0;exitX=0;exitY=0;exitDx=140;exitDy=55;exitPerimeter=0;" parent="1" edge="1">
          <mxGeometry width="50" height="50" relative="1" as="geometry">
            <mxPoint x="2237.34" y="592" as="sourcePoint" />
            <mxPoint x="2297.34" y="592" as="targetPoint" />
          </mxGeometry>
        </mxCell>
        <mxCell id="_g4azJEwnOYep_s2dSTF-85" value="Dispositivos de acceso" style="text;html=1;align=center;verticalAlign=middle;whiteSpace=wrap;rounded=0;fontSize=10;" parent="1" vertex="1">
          <mxGeometry x="2276.34" y="556" width="52" height="30" as="geometry" />
        </mxCell>
        <mxCell id="_g4azJEwnOYep_s2dSTF-86" value="" style="endArrow=none;html=1;rounded=0;exitX=1;exitY=0.751;exitDx=0;exitDy=0;exitPerimeter=0;" parent="1" source="_g4azJEwnOYep_s2dSTF-19" edge="1">
          <mxGeometry width="50" height="50" relative="1" as="geometry">
            <mxPoint x="2237.34" y="626.58" as="sourcePoint" />
            <mxPoint x="2297.34" y="626.58" as="targetPoint" />
          </mxGeometry>
        </mxCell>
        <mxCell id="_g4azJEwnOYep_s2dSTF-89" value="Dispositivos de audio" style="text;html=1;align=center;verticalAlign=middle;whiteSpace=wrap;rounded=0;fontSize=10;" parent="1" vertex="1">
          <mxGeometry x="2276.34" y="632.5" width="52" height="30" as="geometry" />
        </mxCell>
        <mxCell id="_g4azJEwnOYep_s2dSTF-90" value="" style="endArrow=none;html=1;rounded=0;" parent="1" edge="1">
          <mxGeometry width="50" height="50" relative="1" as="geometry">
            <mxPoint x="1183" y="770" as="sourcePoint" />
            <mxPoint x="1314" y="770" as="targetPoint" />
          </mxGeometry>
        </mxCell>
        <mxCell id="_g4azJEwnOYep_s2dSTF-93" value="Dispositivos de vigilancia" style="text;html=1;align=center;verticalAlign=middle;whiteSpace=wrap;rounded=0;fontSize=10;" parent="1" vertex="1">
          <mxGeometry x="1169" y="739" width="60" height="30" as="geometry" />
        </mxCell>
        <mxCell id="-aFQt0R_n237FegXMDXR-1" value="Dispositivos Cliente" style="rounded=1;whiteSpace=wrap;html=1;fillColor=none;strokeColor=#B85450;strokeWidth=2;dashed=1;verticalAlign=bottom;fontSize=14;fontStyle=1;labelPosition=center;verticalLabelPosition=top;align=center;" parent="1" vertex="1">
          <mxGeometry x="1382" y="50" width="597" height="150" as="geometry" />
        </mxCell>
        <mxCell id="-aFQt0R_n237FegXMDXR-2" value="" style="group;verticalAlign=bottom;labelPosition=center;verticalLabelPosition=top;align=center;" parent="1" vertex="1" connectable="0">
          <mxGeometry x="1432" y="69.5" width="150" height="111" as="geometry" />
        </mxCell>
        <mxCell id="-aFQt0R_n237FegXMDXR-3" value="Móvil&lt;div&gt;&lt;br&gt;&lt;/div&gt;" style="shape=cube;whiteSpace=wrap;html=1;boundedLbl=1;backgroundOutline=1;darkOpacity=0.05;darkOpacity2=0.1;fillColor=#e1d5e7;strokeColor=#9673a6;fontSize=9;fontStyle=0;" parent="-aFQt0R_n237FegXMDXR-2" vertex="1">
          <mxGeometry width="150" height="111" as="geometry" />
        </mxCell>
        <mxCell id="-aFQt0R_n237FegXMDXR-5" value="" style="group;verticalAlign=bottom;labelPosition=center;verticalLabelPosition=top;align=center;" parent="1" vertex="1" connectable="0">
          <mxGeometry x="1614" y="69.5" width="150" height="111" as="geometry" />
        </mxCell>
        <mxCell id="-aFQt0R_n237FegXMDXR-6" value="&lt;div&gt;PC/Móvil (Web)&lt;/div&gt;&lt;div&gt;&lt;br&gt;&lt;/div&gt;" style="shape=cube;whiteSpace=wrap;html=1;boundedLbl=1;backgroundOutline=1;darkOpacity=0.05;darkOpacity2=0.1;fillColor=#e1d5e7;strokeColor=#9673a6;fontSize=9;fontStyle=0;" parent="-aFQt0R_n237FegXMDXR-5" vertex="1">
          <mxGeometry width="150" height="111" as="geometry" />
        </mxCell>
        <mxCell id="-aFQt0R_n237FegXMDXR-8" value="" style="group;verticalAlign=bottom;labelPosition=center;verticalLabelPosition=top;align=center;" parent="1" vertex="1" connectable="0">
          <mxGeometry x="1809" y="70" width="150" height="111" as="geometry" />
        </mxCell>
        <mxCell id="-aFQt0R_n237FegXMDXR-9" value="&lt;div&gt;PC/Móvil (Web)&lt;/div&gt;&lt;div&gt;&lt;br&gt;&lt;/div&gt;" style="shape=cube;whiteSpace=wrap;html=1;boundedLbl=1;backgroundOutline=1;darkOpacity=0.05;darkOpacity2=0.1;fillColor=#e1d5e7;strokeColor=#9673a6;fontSize=9;fontStyle=0;" parent="-aFQt0R_n237FegXMDXR-8" vertex="1">
          <mxGeometry width="150" height="111" as="geometry" />
        </mxCell>
        <mxCell id="-aFQt0R_n237FegXMDXR-11" value="" style="group;verticalAlign=bottom;labelPosition=center;verticalLabelPosition=top;align=center;" parent="1" vertex="1" connectable="0">
          <mxGeometry x="1712" y="260" width="150" height="111" as="geometry" />
        </mxCell>
        <mxCell id="-aFQt0R_n237FegXMDXR-12" value="Frontend" style="shape=cube;whiteSpace=wrap;html=1;boundedLbl=1;backgroundOutline=1;darkOpacity=0.05;darkOpacity2=0.1;fillColor=#f8cecc;strokeColor=#b85450;fontSize=9;fontStyle=0;" parent="-aFQt0R_n237FegXMDXR-11" vertex="1">
          <mxGeometry width="150" height="111" as="geometry" />
        </mxCell>
        <mxCell id="-aFQt0R_n237FegXMDXR-14" value="" style="endArrow=none;html=1;rounded=0;entryX=0.703;entryY=1.011;entryDx=0;entryDy=0;entryPerimeter=0;" parent="1" target="-aFQt0R_n237FegXMDXR-1" edge="1">
          <mxGeometry width="50" height="50" relative="1" as="geometry">
            <mxPoint x="1802" y="270" as="sourcePoint" />
            <mxPoint x="2034.5" y="275" as="targetPoint" />
          </mxGeometry>
        </mxCell>
        <mxCell id="WbFh5DaYgJGqBUn1kQc4-1" value="25GbE" style="text;html=1;align=center;verticalAlign=middle;whiteSpace=wrap;rounded=0;" vertex="1" parent="1">
          <mxGeometry x="1386" y="512" width="60" height="30" as="geometry" />
        </mxCell>
        <mxCell id="WbFh5DaYgJGqBUn1kQc4-2" value="10GbE" style="text;html=1;align=center;verticalAlign=middle;whiteSpace=wrap;rounded=0;" vertex="1" parent="1">
          <mxGeometry x="1462" y="674" width="60" height="30" as="geometry" />
        </mxCell>
        <mxCell id="WbFh5DaYgJGqBUn1kQc4-3" value="WiFi/Ethernet&lt;div&gt;VPN sobre internet&lt;/div&gt;" style="text;html=1;align=center;verticalAlign=middle;whiteSpace=wrap;rounded=0;fontSize=8;labelBackgroundColor=default;" vertex="1" parent="1">
          <mxGeometry x="1208.5" y="770" width="70" height="31" as="geometry" />
        </mxCell>
        <mxCell id="WbFh5DaYgJGqBUn1kQc4-4" value="25GbE" style="text;html=1;align=center;verticalAlign=middle;whiteSpace=wrap;rounded=0;" vertex="1" parent="1">
          <mxGeometry x="1253.34" y="528" width="60" height="30" as="geometry" />
        </mxCell>
        <mxCell id="WbFh5DaYgJGqBUn1kQc4-5" value="25GbE&amp;nbsp;&lt;div&gt;HTTPS REST&lt;/div&gt;" style="text;html=1;align=center;verticalAlign=middle;whiteSpace=wrap;rounded=0;" vertex="1" parent="1">
          <mxGeometry x="1526" y="397" width="84" height="30" as="geometry" />
        </mxCell>
        <mxCell id="WbFh5DaYgJGqBUn1kQc4-6" value="1GbE" style="text;html=1;align=center;verticalAlign=middle;whiteSpace=wrap;rounded=0;fontSize=8;" vertex="1" parent="1">
          <mxGeometry x="1632" y="529" width="60" height="30" as="geometry" />
        </mxCell>
        <mxCell id="WbFh5DaYgJGqBUn1kQc4-7" value="1GbE&amp;nbsp;&lt;div&gt;HTTPS REST&lt;/div&gt;" style="text;html=1;align=center;verticalAlign=middle;whiteSpace=wrap;rounded=0;fontSize=8;" vertex="1" parent="1">
          <mxGeometry x="1800" y="484" width="84" height="30" as="geometry" />
        </mxCell>
        <mxCell id="WbFh5DaYgJGqBUn1kQc4-8" value="10GbE&amp;nbsp;&lt;div&gt;HTTPS REST&lt;/div&gt;" style="text;html=1;align=center;verticalAlign=middle;whiteSpace=wrap;rounded=0;fontSize=8;" vertex="1" parent="1">
          <mxGeometry x="1744" y="501" width="60" height="30" as="geometry" />
        </mxCell>
        <mxCell id="WbFh5DaYgJGqBUn1kQc4-9" value="1GbE&amp;nbsp;&lt;div&gt;HTTPS REST&lt;/div&gt;" style="text;html=1;align=center;verticalAlign=middle;whiteSpace=wrap;rounded=0;fontSize=8;labelBackgroundColor=default;" vertex="1" parent="1">
          <mxGeometry x="1653" y="610" width="84" height="30" as="geometry" />
        </mxCell>
        <mxCell id="WbFh5DaYgJGqBUn1kQc4-10" value="10GbE" style="text;html=1;align=center;verticalAlign=middle;whiteSpace=wrap;rounded=0;fontSize=8;" vertex="1" parent="1">
          <mxGeometry x="1416" y="738" width="60" height="30" as="geometry" />
        </mxCell>
        <mxCell id="WbFh5DaYgJGqBUn1kQc4-12" value="25GbE&amp;nbsp;&lt;div&gt;endpoints HTTP con HLS&lt;/div&gt;" style="text;html=1;align=center;verticalAlign=middle;whiteSpace=wrap;rounded=0;" vertex="1" parent="1">
          <mxGeometry x="1480" y="355" width="149" height="30" as="geometry" />
        </mxCell>
        <mxCell id="WbFh5DaYgJGqBUn1kQc4-13" value="25GbE&amp;nbsp;" style="text;html=1;align=center;verticalAlign=middle;whiteSpace=wrap;rounded=0;" vertex="1" parent="1">
          <mxGeometry x="1687" y="373" width="80" height="20" as="geometry" />
        </mxCell>
        <mxCell id="WbFh5DaYgJGqBUn1kQc4-14" value="IP/Ethernet" style="text;html=1;align=center;verticalAlign=middle;whiteSpace=wrap;rounded=0;" vertex="1" parent="1">
          <mxGeometry x="2270" y="594" width="60" height="30" as="geometry" />
        </mxCell>
        <mxCell id="WbFh5DaYgJGqBUn1kQc4-15" value="1GbE" style="text;html=1;align=center;verticalAlign=middle;whiteSpace=wrap;rounded=0;fontSize=8;" vertex="1" parent="1">
          <mxGeometry x="2143" y="669" width="40" height="17.5" as="geometry" />
        </mxCell>
        <mxCell id="WbFh5DaYgJGqBUn1kQc4-16" value="10GbE" style="text;html=1;align=center;verticalAlign=middle;whiteSpace=wrap;rounded=0;fontSize=8;" vertex="1" parent="1">
          <mxGeometry x="2171" y="525" width="40" height="17.5" as="geometry" />
        </mxCell>
        <mxCell id="WbFh5DaYgJGqBUn1kQc4-17" value="WiFi/Ethernet&lt;div&gt;VPN sobre internet&lt;/div&gt;" style="text;html=1;align=center;verticalAlign=middle;whiteSpace=wrap;rounded=0;fontSize=8;labelBackgroundColor=default;" vertex="1" parent="1">
          <mxGeometry x="2004" y="440.5" width="70" height="31" as="geometry" />
        </mxCell>
      </root>
    </mxGraphModel>
  </diagram>
</mxfile>
